<?xml version="1.0" standalone="no"?>
<svg viewBox="0 0 200 200" xmlns="http://www.w3.org/2000/svg">
  <path fill="#CD8AEA" d="M37.9,-58.4C45.2,-54.2,44.6,-37.2,45.6,-24.1C46.5,-11,49,-1.8,53.3,11.7C57.7,25.2,63.9,43,59.2,55C54.6,67,39,73.3,23,77.6C7.1,82,-9.2,84.5,-21.1,78.2C-33.1,71.9,-40.6,56.8,-51.8,44.5C-63.1,32.2,-78.2,22.8,-81.2,10.8C-84.3,-1.2,-75.4,-15.8,-65.2,-26.3C-54.9,-36.7,-43.4,-43.1,-32.3,-45.7C-21.2,-48.2,-10.6,-46.9,2.3,-50.5C15.3,-54.1,30.5,-62.7,37.9,-58.4Z" transform="translate(100 100)" />
</svg>
